STARTFONT 2.1
FONT -FontForge-ITC Benguiat Gothic Std-Medium-R-Normal--36-350-75-75-P-186-ISO8859-1
SIZE 35 75 75
FONTBOUNDINGBOX 42 42 -6 -9
COMMENT "Generated by fontforge, http://fontforge.sourceforge.net"
COMMENT "Copyright 1990, 1995 , 2002Adobe Systems Incorporated. All Rights Reserved. ITC Benguiat Gothic is a registered trademark of International Typeface Corporation."
STARTPROPERTIES 40
FOUNDRY "FontForge"
FAMILY_NAME "ITC Benguiat Gothic Std"
WEIGHT_NAME "Medium"
SLANT "R"
SETWIDTH_NAME "Normal"
ADD_STYLE_NAME ""
PIXEL_SIZE 36
POINT_SIZE 350
RESOLUTION_X 75
RESOLUTION_Y 75
SPACING "P"
AVERAGE_WIDTH 186
CHARSET_REGISTRY "ISO8859"
CHARSET_ENCODING "1"
FONTNAME_REGISTRY ""
CHARSET_COLLECTIONS "ISOLatin1Encoding"
FONT_NAME "BenguiatGothicStd-Medium"
FACE_NAME "ITC Benguiat Gothic Std Medium"
COPYRIGHT "Copyright 1990, 1995 , 2002Adobe Systems Incorporated. All Rights Reserved. ITC Benguiat Gothic is a registered trademark of International Typeface Corporation."
FONT_VERSION "001.001"
FONT_ASCENT 25
FONT_DESCENT 11
UNDERLINE_POSITION -4
UNDERLINE_THICKNESS 2
X_HEIGHT 17
CAP_HEIGHT 24
RAW_ASCENT 691
RAW_DESCENT 309
NORM_SPACE 11
RELATIVE_WEIGHT 50
RELATIVE_SETWIDTH 50
SUPERSCRIPT_X 0
SUPERSCRIPT_Y 12
SUPERSCRIPT_SIZE 21
SUBSCRIPT_X 0
SUBSCRIPT_Y 2
SUBSCRIPT_SIZE 21
FIGURE_WIDTH 22
AVG_LOWERCASE_WIDTH 179
AVG_UPPERCASE_WIDTH 217
ENDPROPERTIES
CHARS 253
STARTCHAR space
ENCODING 32
SWIDTH 305 0
DWIDTH 11 0
BBX 1 1 0 0
BITMAP
00
ENDCHAR
STARTCHAR exclam
ENCODING 33
SWIDTH 278 0
DWIDTH 10 0
BBX 4 25 3 0
BITMAP
60
F0
F0
F0
F0
F0
F0
F0
F0
F0
F0
F0
E0
E0
60
60
60
60
00
00
00
60
F0
F0
60
ENDCHAR
STARTCHAR quotedbl
ENCODING 34
SWIDTH 333 0
DWIDTH 12 0
BBX 8 10 2 15
BITMAP
E7
E7
E7
E7
E7
E7
E7
E7
E7
02
ENDCHAR
STARTCHAR numbersign
ENCODING 35
SWIDTH 611 0
DWIDTH 22 0
BBX 18 25 2 0
BITMAP
038700
038600
030600
030600
030E00
070E00
070E00
070E00
7FFFC0
7FFFC0
060C00
061C00
0E1C00
0E1C00
0E1C00
FFFF80
FFFF80
0C1800
0C3800
1C3800
1C3800
1C3800
1C3000
183000
183000
ENDCHAR
STARTCHAR dollar
ENCODING 36
SWIDTH 611 0
DWIDTH 22 0
BBX 16 29 2 -2
BITMAP
0380
0380
0380
0380
1FF8
7FFC
FFF8
E000
E000
F000
7FC0
3FF8
07FE
039E
038F
0387
0387
0387
0387
038F
038E
03BE
FFFC
FFF8
FFC0
0380
0380
0380
0380
ENDCHAR
STARTCHAR percent
ENCODING 37
SWIDTH 833 0
DWIDTH 30 0
BBX 26 25 2 0
BITMAP
1F006000
3FC07000
7FC0E000
F0E0E000
E0E1C000
E061C000
E0638000
E0E38000
F0E70000
7FC70000
3FCE0000
1F0E0000
000C0000
001C3E00
0018FF00
0038FF80
0031C380
007181C0
006381C0
00E381C0
00E181C0
01C1C380
01C0FF80
0380FF00
03803E00
ENDCHAR
STARTCHAR ampersand
ENCODING 38
SWIDTH 778 0
DWIDTH 28 0
BBX 25 25 2 0
BITMAP
01F00000
07FC0000
0FFE0000
1E1E0000
1C0E0000
1C0F0000
1C0F3000
1E0E3800
0E0E3800
1F1C3800
3FFC3800
3BF81C00
71F01C00
70781800
E03E3800
E01F3800
E00FB800
E003F000
F001F000
7000F800
7803FC00
3E0FDF00
1FFF8F80
0FFE0780
03F80380
ENDCHAR
STARTCHAR quotesingle
ENCODING 39
SWIDTH 222 0
DWIDTH 8 0
BBX 2 9 3 16
BITMAP
C0
C0
C0
C0
C0
C0
C0
C0
C0
ENDCHAR
STARTCHAR parenleft
ENCODING 40
SWIDTH 389 0
DWIDTH 14 0
BBX 9 33 3 -7
BITMAP
0380
0780
0F00
0E00
1C00
3C00
3800
7800
7000
7000
F000
E000
E000
E000
E000
E000
E000
E000
E000
E000
E000
E000
F000
7000
7000
7800
3800
3C00
1C00
0E00
0F00
0780
0180
ENDCHAR
STARTCHAR parenright
ENCODING 41
SWIDTH 389 0
DWIDTH 14 0
BBX 9 33 2 -7
BITMAP
E000
F000
7800
3800
1C00
1E00
0E00
0F00
0700
0700
0780
0380
0380
0380
0380
0380
0380
0380
0380
0380
0380
0380
0780
0700
0700
0E00
0E00
1E00
3C00
3800
7800
F000
C000
ENDCHAR
STARTCHAR asterisk
ENCODING 42
SWIDTH 333 0
DWIDTH 12 0
BBX 10 10 1 15
BITMAP
0C00
0C00
EDC0
FFC0
3F00
3F00
FF80
EDC0
0C00
0C00
ENDCHAR
STARTCHAR plus
ENCODING 43
SWIDTH 600 0
DWIDTH 22 0
BBX 18 18 2 0
BITMAP
01C000
01C000
01C000
01C000
01C000
01C000
01C000
01C000
FFFFC0
FFFFC0
FFFFC0
01C000
01C000
01C000
01C000
01C000
01C000
01C000
ENDCHAR
STARTCHAR comma
ENCODING 44
SWIDTH 305 0
DWIDTH 11 0
BBX 6 9 2 -4
BITMAP
18
3C
38
78
70
70
E0
E0
E0
ENDCHAR
STARTCHAR hyphen
ENCODING 45
SWIDTH 333 0
DWIDTH 12 0
BBX 8 3 2 8
BITMAP
FF
FF
FF
ENDCHAR
STARTCHAR period
ENCODING 46
SWIDTH 305 0
DWIDTH 11 0
BBX 3 4 4 0
BITMAP
E0
E0
E0
E0
ENDCHAR
STARTCHAR slash
ENCODING 47
SWIDTH 278 0
DWIDTH 10 0
BBX 12 25 -1 0
BITMAP
0030
0070
0070
00E0
00E0
01E0
01C0
01C0
0380
0380
0700
0700
0F00
0E00
0E00
1C00
1C00
3800
3800
7800
7000
7000
E000
E000
C000
ENDCHAR
STARTCHAR zero
ENCODING 48
SWIDTH 611 0
DWIDTH 22 0
BBX 20 25 1 0
BITMAP
01F800
07FC00
0FFF00
1F0F80
1C0780
3C03C0
3801C0
7801E0
7000E0
7000E0
F000E0
F000F0
F000F0
F000F0
F000E0
7000E0
7000E0
7001E0
3801C0
3C03C0
1C0780
1F0F80
0FFF00
07FC00
01F800
ENDCHAR
STARTCHAR one
ENCODING 49
SWIDTH 611 0
DWIDTH 22 0
BBX 13 25 5 0
BITMAP
0700
7F00
FF00
FF00
0700
0700
0700
0700
0700
0700
0700
0700
0700
0700
0700
0700
0700
0700
0700
0700
0700
0700
7FF8
FFF8
7FF8
ENDCHAR
STARTCHAR two
ENCODING 50
SWIDTH 611 0
DWIDTH 22 0
BBX 17 25 2 0
BITMAP
7FF800
7FFC00
7FFE00
001F00
000700
000700
000700
000700
000700
000F00
003E00
007C00
01F800
03F000
0FC000
1F8000
3E0000
7C0000
780000
700000
F00000
F00000
FFFF80
FFFF80
7FFF80
ENDCHAR
STARTCHAR three
ENCODING 51
SWIDTH 611 0
DWIDTH 22 0
BBX 17 25 2 0
BITMAP
7FFE00
FFFE00
7FFE00
007C00
01F000
03E000
0F8000
1FC000
1FF800
1FFE00
003F00
000F00
000780
000380
000380
000380
000380
000380
000380
000780
000780
001F00
FFFE00
FFFC00
FFF000
ENDCHAR
STARTCHAR four
ENCODING 52
SWIDTH 611 0
DWIDTH 22 0
BBX 19 25 2 0
BITMAP
001C00
007C00
00FE00
03FE00
07DE00
079E00
0F1E00
1E1E00
3C1E00
381E00
781E00
701E00
F01E00
E01E00
E01E00
E01E00
FFFFC0
FFFFE0
FFFFC0
001E00
001E00
001E00
001E00
001E00
000C00
ENDCHAR
STARTCHAR five
ENCODING 53
SWIDTH 611 0
DWIDTH 22 0
BBX 18 25 2 0
BITMAP
3FFE00
3FFF00
3FFE00
780000
780000
780000
7FC000
7FF800
7FFE00
007F00
000F80
000780
0003C0
0003C0
0001C0
0001C0
0001C0
0001C0
0003C0
0003C0
000780
001F80
FFFF00
FFFC00
FFF000
ENDCHAR
STARTCHAR six
ENCODING 54
SWIDTH 611 0
DWIDTH 22 0
BBX 20 25 1 0
BITMAP
01FFC0
07FFE0
0FFFC0
1F0000
3C0000
380000
780000
78FC00
73FF00
77FF80
7F07C0
FE03E0
FC01E0
F800F0
7800F0
7800F0
7800F0
7800F0
7800E0
3C01E0
3E01E0
1F07C0
0FFF80
07FF00
01FC00
ENDCHAR
STARTCHAR seven
ENCODING 55
SWIDTH 611 0
DWIDTH 22 0
BBX 15 25 3 0
BITMAP
FFFE
FFFE
FFFE
000E
000E
000E
001C
001C
003C
0078
0070
00F0
01E0
01C0
03C0
0780
0780
0F00
0E00
0E00
1E00
1E00
1C00
1C00
0C00
ENDCHAR
STARTCHAR eight
ENCODING 56
SWIDTH 611 0
DWIDTH 22 0
BBX 18 25 2 0
BITMAP
03F000
1FFC00
3FFE00
3C0F00
780780
700780
700380
700780
780700
3C1F00
1FFE00
1FFC00
3FFF00
780F80
F003C0
E001C0
E001C0
E001C0
E001C0
E001C0
F003C0
780F80
3FFF00
1FFE00
07F800
ENDCHAR
STARTCHAR nine
ENCODING 57
SWIDTH 611 0
DWIDTH 22 0
BBX 20 25 1 0
BITMAP
03F800
0FFE00
1FFF00
3E0F80
7807C0
7803C0
F001E0
F001E0
E001E0
E001E0
F001E0
F001E0
7803F0
7807E0
3E0FE0
1FFEE0
0FFCE0
03F1E0
0001E0
0003C0
0003C0
000F80
3FFF00
7FFE00
3FF800
ENDCHAR
STARTCHAR colon
ENCODING 58
SWIDTH 305 0
DWIDTH 11 0
BBX 3 15 4 0
BITMAP
E0
E0
E0
E0
00
00
00
00
00
00
00
E0
E0
E0
E0
ENDCHAR
STARTCHAR semicolon
ENCODING 59
SWIDTH 305 0
DWIDTH 11 0
BBX 6 19 1 -4
BITMAP
0C
1C
1C
1C
00
00
00
00
00
00
1C
1C
3C
38
38
70
70
E0
60
ENDCHAR
STARTCHAR less
ENCODING 60
SWIDTH 600 0
DWIDTH 22 0
BBX 18 18 2 0
BITMAP
000040
0003C0
000FC0
003F80
01FC00
07F000
1F8000
FE0000
F80000
F00000
FE0000
1F8000
07F000
01FC00
003F00
000FC0
0003C0
000040
ENDCHAR
STARTCHAR equal
ENCODING 61
SWIDTH 600 0
DWIDTH 22 0
BBX 18 10 2 4
BITMAP
FFFFC0
FFFFC0
FFFFC0
000000
000000
000000
000000
FFFFC0
FFFFC0
FFFFC0
ENDCHAR
STARTCHAR greater
ENCODING 62
SWIDTH 600 0
DWIDTH 22 0
BBX 18 18 2 0
BITMAP
800000
E00000
FC0000
7F0000
1FC000
03F800
00FE00
001F80
0007C0
0007C0
001F80
00FE00
03F800
0FC000
7F0000
FC0000
E00000
800000
ENDCHAR
STARTCHAR question
ENCODING 63
SWIDTH 500 0
DWIDTH 18 0
BBX 15 25 1 0
BITMAP
FFE0
FFF8
FFFC
003C
001E
000E
000E
001E
001E
003C
0078
01F0
03E0
07C0
0780
0F00
0E00
0E00
0600
0000
0000
0E00
0E00
0E00
0E00
ENDCHAR
STARTCHAR at
ENCODING 64
SWIDTH 800 0
DWIDTH 29 0
BBX 25 25 2 0
BITMAP
007F8000
01FFE000
07E1F800
0F003C00
1C000E00
381C0700
707F7700
70FFF380
E1E1E380
E3C1E380
E380E180
E780E380
E700C380
E701C300
E701C300
E7038600
E7878E00
73FFFC00
71FFF800
38F1E700
1C000E00
0F003C00
07E1F800
01FFE000
007F8000
ENDCHAR
STARTCHAR A
ENCODING 65
SWIDTH 667 0
DWIDTH 24 0
BBX 22 25 1 0
BITMAP
003000
00F800
00FC00
01FE00
03DE00
038F00
078700
070780
0F0380
0E03C0
1F81C0
1FF1E0
1FFCE0
3C7FE0
380FF0
3803F0
7801F0
7000F8
700078
700078
F00038
F0003C
E0003C
E0003C
E0001C
ENDCHAR
STARTCHAR B
ENCODING 66
SWIDTH 611 0
DWIDTH 22 0
BBX 18 25 3 0
BITMAP
FFFC00
FFFE00
FFFF00
E00F00
E00700
E00700
E00700
FE0700
FFCE00
FFFE00
E1FC00
E03E00
E00F00
E00780
E00380
E003C0
E003C0
E001C0
E001C0
E003C0
E003C0
E00F80
FFFF00
FFFE00
FFFC00
ENDCHAR
STARTCHAR C
ENCODING 67
SWIDTH 611 0
DWIDTH 22 0
BBX 20 25 1 0
BITMAP
01FFE0
07FFE0
1FFFE0
3F0000
3C0000
780000
780000
700000
700000
F00000
F00000
700000
700000
700000
780000
380000
3C0000
3E0000
1F0000
0F8000
07E000
03FC00
01FFF0
007FF0
000FE0
ENDCHAR
STARTCHAR D
ENCODING 68
SWIDTH 667 0
DWIDTH 24 0
BBX 19 25 3 0
BITMAP
FE0000
FFC000
FFF000
E3FC00
E07E00
E01F00
E00F80
E007C0
E003C0
E001E0
E001E0
E000E0
E000E0
E000E0
E000E0
E000E0
E000E0
E000E0
E000E0
E001E0
E003C0
E00FC0
FFFF80
FFFE00
FFF800
ENDCHAR
STARTCHAR E
ENCODING 69
SWIDTH 556 0
DWIDTH 20 0
BBX 16 25 3 0
BITMAP
FFFE
FFFF
FFFE
E000
E000
E000
E000
FFFE
FFFE
FFFE
E000
E000
E000
E000
E000
E000
E000
E000
E000
E000
E000
E000
FFFE
FFFF
FFFE
ENDCHAR
STARTCHAR F
ENCODING 70
SWIDTH 500 0
DWIDTH 18 0
BBX 15 25 3 0
BITMAP
FFFC
FFFE
FFFC
E000
E000
E000
E000
FFFC
FFFC
FFFC
E000
E000
E000
E000
E000
E000
E000
E000
E000
E000
E000
E000
E000
E000
E000
ENDCHAR
STARTCHAR G
ENCODING 71
SWIDTH 667 0
DWIDTH 24 0
BBX 21 25 1 0
BITMAP
03FFF0
0FFFF0
1FFFF0
3F0000
3C0000
780000
780000
701FF0
F01FF8
F01FF8
F00038
F00038
F00038
F00038
700038
780038
780038
3C0038
1E0038
1F0038
0FC038
03F838
01FFF8
007FF8
000FF0
ENDCHAR
STARTCHAR H
ENCODING 72
SWIDTH 611 0
DWIDTH 22 0
BBX 16 25 3 0
BITMAP
C003
E007
E007
E007
E007
E007
E007
FFFF
FFFF
FFFF
E007
E007
E007
E007
E007
E007
E007
E007
E007
E007
E007
E007
E007
E007
C007
ENDCHAR
STARTCHAR I
ENCODING 73
SWIDTH 222 0
DWIDTH 8 0
BBX 4 25 2 0
BITMAP
60
F0
F0
F0
F0
F0
F0
F0
F0
F0
F0
F0
F0
F0
F0
F0
F0
F0
F0
F0
F0
F0
F0
F0
60
ENDCHAR
STARTCHAR J
ENCODING 74
SWIDTH 444 0
DWIDTH 16 0
BBX 14 25 -1 0
BITMAP
001C
001C
001C
001C
001C
001C
001C
001C
001C
001C
001C
001C
001C
001C
001C
001C
001C
001C
001C
001C
003C
F0F8
FFF8
7FE0
1F80
ENDCHAR
STARTCHAR K
ENCODING 75
SWIDTH 611 0
DWIDTH 22 0
BBX 18 25 3 0
BITMAP
C00300
E00700
E00700
E00F00
E00E00
E03E00
F07C00
FFF800
FFE000
E7F000
E0F800
E07C00
E03C00
E01E00
E00F00
E00F00
E00700
E00780
E00380
E003C0
E003C0
E001C0
E001C0
E001C0
C001C0
ENDCHAR
STARTCHAR L
ENCODING 76
SWIDTH 444 0
DWIDTH 16 0
BBX 13 25 3 0
BITMAP
E000
E000
E000
E000
E000
E000
E000
E000
E000
E000
E000
E000
E000
E000
E000
E000
E000
E000
E000
E000
E000
E000
FFF8
FFF8
FFF8
ENDCHAR
STARTCHAR M
ENCODING 77
SWIDTH 722 0
DWIDTH 26 0
BBX 22 25 2 0
BITMAP
180060
1C00E0
3E01F0
3E01F0
3F03F0
3F03F0
3787F0
738738
73CF38
71FE38
71FE38
70FC38
707838
703038
700038
700038
700038
F00038
F0003C
E0003C
E0003C
E0003C
E0003C
E0001C
600018
ENDCHAR
STARTCHAR N
ENCODING 78
SWIDTH 611 0
DWIDTH 22 0
BBX 16 25 3 0
BITMAP
E003
F007
F807
FC07
FE07
FF07
EF87
E7E7
E1FF
E0FF
E00F
E007
E007
E007
E007
E007
E007
E007
E007
E007
E007
E007
E007
E007
C003
ENDCHAR
STARTCHAR O
ENCODING 79
SWIDTH 722 0
DWIDTH 26 0
BBX 23 25 1 0
BITMAP
007E00
03FF80
07FFE0
0F81F0
1F00F8
3C007C
3C003C
78001E
78001E
70000E
70000E
F0000E
F0000E
F0000E
70000E
70000E
78001E
78001E
3C003C
3C007C
1E00F8
0F81F0
07FFE0
03FFC0
007E00
ENDCHAR
STARTCHAR P
ENCODING 80
SWIDTH 556 0
DWIDTH 20 0
BBX 17 25 3 0
BITMAP
FFFC00
FFFF00
FFFF80
E00780
E00780
E00780
E00780
E01F00
E07E00
E3FC00
FFF000
FFC000
FF0000
F80000
E00000
E00000
E00000
E00000
E00000
E00000
E00000
E00000
E00000
E00000
E00000
ENDCHAR
STARTCHAR Q
ENCODING 81
SWIDTH 722 0
DWIDTH 26 0
BBX 24 29 1 -4
BITMAP
007E00
03FF80
07FFE0
0F81F0
1F00F8
3E0078
3C003C
78001C
78001E
70000E
70000E
70000E
F0000E
F0000E
70000E
70000E
79F01E
7BF81E
3DFC3C
3C1E3C
1E0FF8
0F87F0
07FFE0
03FFC0
007FE0
0001F0
0000FF
00007F
00001E
ENDCHAR
STARTCHAR R
ENCODING 82
SWIDTH 667 0
DWIDTH 24 0
BBX 20 25 3 0
BITMAP
FFFE00
FFFF00
FFFF80
E003C0
E003C0
E003C0
E003C0
FE03C0
FFC780
FFFF00
E1FE00
E03E00
E01F00
E00F00
E00780
E003C0
E001C0
E001C0
E001E0
E000E0
E000E0
E000F0
E000F0
E00070
E00060
ENDCHAR
STARTCHAR S
ENCODING 83
SWIDTH 611 0
DWIDTH 22 0
BBX 20 25 1 0
BITMAP
1FFF00
3FFF80
7FFF00
F00000
F00000
F00000
7C0000
7FF000
3FFF00
0FFF80
001FC0
0003E0
0001E0
0000F0
0000F0
0000F0
0000F0
0000F0
0000E0
0001E0
0003C0
0007C0
7FFF80
FFFF00
7FF800
ENDCHAR
STARTCHAR T
ENCODING 84
SWIDTH 500 0
DWIDTH 18 0
BBX 18 25 0 0
BITMAP
7FFF80
FFFFC0
7FFF80
01E000
01E000
01E000
01E000
01E000
01E000
01E000
01E000
01E000
01E000
01E000
01E000
01E000
01E000
01E000
01E000
01E000
01E000
01E000
01E000
01E000
00C000
ENDCHAR
STARTCHAR U
ENCODING 85
SWIDTH 611 0
DWIDTH 22 0
BBX 20 25 1 0
BITMAP
180180
3801C0
3801C0
3801C0
3801C0
3801C0
3801C0
7001E0
7000E0
7000E0
7000E0
7000E0
7000E0
7000E0
F000E0
E000F0
F000F0
F000F0
F000E0
7801E0
7C03E0
3F0FC0
1FFF80
0FFF00
01F800
ENDCHAR
STARTCHAR V
ENCODING 86
SWIDTH 611 0
DWIDTH 22 0
BBX 20 25 1 0
BITMAP
E00070
E00070
E00070
E00070
F000F0
F000E0
7000E0
7000E0
7001E0
7801C0
3801C0
3801C0
3C0380
1C0380
1C0380
0E0700
0E0700
0F0F00
070E00
079E00
039C00
03F800
01F800
00F000
006000
ENDCHAR
STARTCHAR W
ENCODING 87
SWIDTH 833 0
DWIDTH 30 0
BBX 28 25 1 0
BITMAP
60060060
E00F00E0
F00F00F0
F00F00F0
F00F00F0
F00F00E0
F00F00E0
700F00E0
701F00E0
701F80E0
701F80E0
781F81E0
381F81C0
383B81C0
3839C1C0
3C39C3C0
1C39C380
1C70E380
1E70E780
0E70E700
0EE07700
0FE07F00
07C03E00
07C03C00
03801C00
ENDCHAR
STARTCHAR X
ENCODING 88
SWIDTH 611 0
DWIDTH 22 0
BBX 20 25 1 0
BITMAP
3000C0
7801E0
3C03C0
3C03C0
1E0780
0F0F00
079E00
03FC00
01F800
01F800
03FC00
07FE00
0F0F00
0E0700
1E0780
3C03C0
3803C0
7801E0
7801E0
7000E0
F000F0
F000F0
E000F0
E00070
E00070
ENDCHAR
STARTCHAR Y
ENCODING 89
SWIDTH 556 0
DWIDTH 20 0
BBX 18 25 1 0
BITMAP
E001C0
E001C0
F003C0
F003C0
700380
780780
380700
3C0F00
1E1E00
0F3C00
0FFC00
07F800
01E000
01E000
01E000
01E000
01E000
01E000
01E000
01E000
01E000
01E000
01E000
01E000
00C000
ENDCHAR
STARTCHAR Z
ENCODING 90
SWIDTH 500 0
DWIDTH 18 0
BBX 16 25 1 0
BITMAP
7FFE
7FFE
7FFE
000E
000E
000E
001E
003C
003C
0078
00F0
01F0
03E0
07C0
0F80
1F00
3E00
3C00
7800
7000
F000
E000
FFFE
FFFF
7FFF
ENDCHAR
STARTCHAR bracketleft
ENCODING 91
SWIDTH 389 0
DWIDTH 14 0
BBX 8 33 3 -7
BITMAP
FF
FF
E0
E0
E0
E0
E0
E0
E0
E0
E0
E0
E0
E0
E0
E0
E0
E0
E0
E0
E0
E0
E0
E0
E0
E0
E0
E0
E0
E0
E0
FF
FF
ENDCHAR
STARTCHAR backslash
ENCODING 92
SWIDTH 278 0
DWIDTH 10 0
BBX 12 25 -1 0
BITMAP
C000
E000
E000
7000
7000
7800
3800
3800
1C00
1C00
0E00
0E00
0F00
0700
0700
0380
0380
01C0
01C0
01E0
00E0
00E0
0070
0070
0030
ENDCHAR
STARTCHAR bracketright
ENCODING 93
SWIDTH 389 0
DWIDTH 14 0
BBX 8 33 3 -7
BITMAP
FF
FF
07
07
07
07
07
07
07
07
07
07
07
07
07
07
07
07
07
07
07
07
07
07
07
07
07
07
07
07
07
FF
FF
ENDCHAR
STARTCHAR asciicircum
ENCODING 94
SWIDTH 600 0
DWIDTH 22 0
BBX 17 15 2 10
BITMAP
01C000
01E000
03E000
03F000
077000
073800
0E3800
0E1C00
1C1C00
1C0E00
380E00
380700
700700
700380
E00380
ENDCHAR
STARTCHAR underscore
ENCODING 95
SWIDTH 500 0
DWIDTH 18 0
BBX 18 2 0 -5
BITMAP
FFFFC0
FFFFC0
ENDCHAR
STARTCHAR grave
ENCODING 96
SWIDTH 222 0
DWIDTH 8 0
BBX 10 5 -1 21
BITMAP
6000
FC00
FF00
1FC0
01C0
ENDCHAR
STARTCHAR a
ENCODING 97
SWIDTH 500 0
DWIDTH 18 0
BBX 16 18 0 0
BITMAP
3FF8
3FFC
3FFE
000E
0007
0007
00FF
0FFF
3FF7
7C07
7807
7007
F007
700F
700F
7EFF
3FF7
0FC6
ENDCHAR
STARTCHAR b
ENCODING 98
SWIDTH 556 0
DWIDTH 20 0
BBX 17 25 2 0
BITMAP
600000
E00000
E00000
E00000
E00000
E00000
E00000
FF0000
FFE000
FFF800
E1FC00
E03E00
E01E00
E00F00
E00700
E00700
E00780
E00780
E00780
E00700
E00F00
E01F00
FFFE00
FFFC00
7FF000
ENDCHAR
STARTCHAR c
ENCODING 99
SWIDTH 500 0
DWIDTH 18 0
BBX 17 18 1 0
BITMAP
07FE00
1FFF00
3FFE00
7C0000
780000
700000
F00000
F00000
F00000
700000
700000
780000
380000
3E0000
1F0000
0FFF00
03FF80
00FF00
ENDCHAR
STARTCHAR d
ENCODING 100
SWIDTH 556 0
DWIDTH 20 0
BBX 17 25 1 0
BITMAP
000300
000380
000380
000380
000380
000380
000380
007F80
03FF80
0FFF80
1FC380
3E0380
7C0380
780380
700380
F00380
F00380
F00380
F00380
F00380
780380
7C0380
3FFF80
1FFF80
07FF00
ENDCHAR
STARTCHAR e
ENCODING 101
SWIDTH 556 0
DWIDTH 20 0
BBX 18 18 1 0
BITMAP
03F800
0FFE00
1FFF00
3C0F00
780380
780380
7003C0
7FFFC0
FFFFC0
F00000
700000
700000
700000
780000
3C0000
1FFF80
0FFFC0
03FF80
ENDCHAR
STARTCHAR f
ENCODING 102
SWIDTH 333 0
DWIDTH 12 0
BBX 12 25 1 0
BITMAP
03F0
0FF0
1FF0
1E00
1C00
1C00
1C00
7FE0
FFE0
7FE0
1C00
1C00
1C00
1C00
1C00
1C00
1C00
1C00
1C00
1C00
1C00
1C00
1C00
1C00
1C00
ENDCHAR
STARTCHAR g
ENCODING 103
SWIDTH 556 0
DWIDTH 20 0
BBX 19 25 1 -7
BITMAP
00FFC0
07FFC0
0FFF80
1F0700
3C0700
780700
700700
700700
F00700
F00700
E00700
F00700
700700
780700
3C0700
3FFF80
0FFFC0
01FFE0
0000E0
0000E0
0001E0
F003C0
FFFF80
7FFF00
0FF800
ENDCHAR
STARTCHAR h
ENCODING 104
SWIDTH 556 0
DWIDTH 20 0
BBX 16 25 2 0
BITMAP
6000
E000
F000
F000
F000
F000
F000
F3F0
FFF8
FFFC
FC1E
F80E
F00F
F00F
F00F
F00F
F00F
F00F
F00F
F00F
F00F
F00F
F00F
F00F
6006
ENDCHAR
STARTCHAR i
ENCODING 105
SWIDTH 222 0
DWIDTH 8 0
BBX 4 24 2 0
BITMAP
60
F0
F0
60
00
00
60
F0
F0
F0
F0
F0
F0
F0
F0
F0
F0
F0
F0
F0
F0
F0
F0
60
ENDCHAR
STARTCHAR j
ENCODING 106
SWIDTH 222 0
DWIDTH 8 0
BBX 12 31 -6 -7
BITMAP
0060
00F0
00F0
0060
0000
0000
0060
00F0
00F0
00F0
00F0
00F0
00F0
00F0
00F0
00F0
00F0
00F0
00F0
00F0
00F0
00F0
00F0
00F0
00F0
00F0
00E0
01E0
FFC0
FF80
7F00
ENDCHAR
STARTCHAR k
ENCODING 107
SWIDTH 500 0
DWIDTH 18 0
BBX 15 25 2 0
BITMAP
6000
E000
F000
F000
F000
F000
F000
F00C
F01C
F03C
F078
F0F8
FFE0
FF80
FFE0
F1F0
F078
F03C
F01C
F01E
F00E
F00E
F00E
E00E
6006
ENDCHAR
STARTCHAR l
ENCODING 108
SWIDTH 222 0
DWIDTH 8 0
BBX 4 25 2 0
BITMAP
60
F0
F0
F0
F0
F0
F0
F0
F0
F0
F0
F0
F0
F0
F0
F0
F0
F0
F0
F0
F0
F0
F0
F0
60
ENDCHAR
STARTCHAR m
ENCODING 109
SWIDTH 889 0
DWIDTH 32 0
BBX 28 18 2 0
BITMAP
63F03F00
EFF8FF80
FFFDFFC0
FC1FC1E0
F80F80E0
F00F00F0
F00F00F0
E00F00F0
E00F00F0
E00F00F0
E00F00F0
E00F00F0
E00F00F0
E00F00F0
E00F00F0
E00F00F0
E00F00F0
60060060
ENDCHAR
STARTCHAR n
ENCODING 110
SWIDTH 556 0
DWIDTH 20 0
BBX 16 18 2 0
BITMAP
63F0
EFF8
EFFC
FC1E
F80E
F00F
F00F
F00F
F00F
F00F
F00F
F00F
F00F
F00F
F00F
F00F
F00F
6006
ENDCHAR
STARTCHAR o
ENCODING 111
SWIDTH 556 0
DWIDTH 20 0
BBX 18 18 1 0
BITMAP
03F000
0FFC00
1FFE00
3C0F00
780700
700380
700380
F003C0
E003C0
F003C0
F003C0
700380
700380
780700
3C0F00
1FFE00
0FFC00
03F000
ENDCHAR
STARTCHAR p
ENCODING 112
SWIDTH 556 0
DWIDTH 20 0
BBX 17 25 2 -7
BITMAP
7F8000
FFE000
FFF800
E0FC00
E03E00
E00E00
E00F00
E00700
E00780
E00780
E00780
E00780
E00700
E00F00
E01E00
FFFE00
FFFC00
FFE000
E00000
E00000
E00000
E00000
E00000
E00000
600000
ENDCHAR
STARTCHAR q
ENCODING 113
SWIDTH 556 0
DWIDTH 20 0
BBX 17 25 1 -7
BITMAP
00FF00
03FF80
0FFF80
1F8380
3E0380
780380
780380
700380
F00380
F00380
F00380
F00380
700380
780380
3C0380
3FFF80
1FFF80
03FF80
000380
000380
000380
000380
000380
000380
000300
ENDCHAR
STARTCHAR r
ENCODING 114
SWIDTH 333 0
DWIDTH 12 0
BBX 10 18 2 0
BITMAP
63C0
FFC0
FFC0
FC00
F800
F000
F000
F000
F000
F000
F000
F000
F000
F000
F000
F000
F000
6000
ENDCHAR
STARTCHAR s
ENCODING 115
SWIDTH 500 0
DWIDTH 18 0
BBX 16 18 1 0
BITMAP
1FFC
7FFC
7FFC
7000
F000
7E00
7FF0
1FFC
00FE
000F
0007
0007
0007
000F
001E
FFFE
FFFC
FFF0
ENDCHAR
STARTCHAR t
ENCODING 116
SWIDTH 333 0
DWIDTH 12 0
BBX 11 23 1 0
BITMAP
1C00
1C00
1C00
1C00
1C00
7FC0
FFE0
7FC0
1C00
1C00
1C00
1C00
1C00
1C00
1C00
1C00
1C00
1C00
1C00
1C00
1FE0
0FE0
07E0
ENDCHAR
STARTCHAR u
ENCODING 117
SWIDTH 556 0
DWIDTH 20 0
BBX 16 18 2 0
BITMAP
6006
F00F
F00F
F00F
F00F
F00F
F00F
F00F
F00F
F00F
F00F
F00F
F00F
701F
783F
3FF7
1FF7
0FC6
ENDCHAR
STARTCHAR v
ENCODING 118
SWIDTH 500 0
DWIDTH 18 0
BBX 16 18 1 0
BITMAP
C003
E007
E007
E007
E007
F00F
700E
700E
781E
381C
383C
1C38
1E78
0E70
0FF0
07E0
03C0
0180
ENDCHAR
STARTCHAR w
ENCODING 119
SWIDTH 722 0
DWIDTH 26 0
BBX 24 18 1 0
BITMAP
601806
E01807
E03C07
E03C07
E03C07
E03C07
E03C0F
707E0E
707E0E
706E0E
70E70E
38E71C
39C79C
39C3BC
1FC3F8
1F81F8
0F00F0
060060
ENDCHAR
STARTCHAR x
ENCODING 120
SWIDTH 500 0
DWIDTH 18 0
BBX 16 18 1 0
BITMAP
6006
700E
700E
781E
381C
3E7C
1FF8
0FE0
0FF0
1FF8
3C3C
781E
781E
F00F
F00F
E007
E007
E007
ENDCHAR
STARTCHAR y
ENCODING 121
SWIDTH 500 0
DWIDTH 18 0
BBX 16 25 1 -7
BITMAP
E003
E007
E007
E007
F007
F007
700F
700E
780E
381E
3C1C
1C3C
1E38
0E78
0F70
07E0
03E0
03C0
03C0
0780
0F00
0F00
1E00
1C00
1800
ENDCHAR
STARTCHAR z
ENCODING 122
SWIDTH 444 0
DWIDTH 16 0
BBX 14 18 1 0
BITMAP
7FF8
7FFC
7FFC
001C
0038
0078
01F0
03E0
07C0
0F00
1E00
3C00
7800
F000
E000
FFFC
FFFC
FFFC
ENDCHAR
STARTCHAR braceleft
ENCODING 123
SWIDTH 389 0
DWIDTH 14 0
BBX 10 33 2 -7
BITMAP
0FC0
1FC0
1C00
1C00
1C00
1C00
1C00
1C00
1C00
1C00
1C00
1C00
3800
3800
7800
F000
E000
F000
3800
3800
3C00
1C00
1C00
1C00
1C00
1C00
1C00
1C00
1C00
1C00
1C00
1FC0
07C0
ENDCHAR
STARTCHAR bar
ENCODING 124
SWIDTH 222 0
DWIDTH 8 0
BBX 2 36 3 -9
BITMAP
C0
C0
C0
C0
C0
C0
C0
C0
C0
C0
C0
C0
C0
C0
C0
C0
C0
C0
C0
C0
C0
C0
C0
C0
C0
C0
C0
C0
C0
C0
C0
C0
C0
C0
C0
C0
ENDCHAR
STARTCHAR braceright
ENCODING 125
SWIDTH 389 0
DWIDTH 14 0
BBX 10 33 2 -7
BITMAP
FC00
FE00
0E00
0E00
0E00
0E00
0E00
0E00
0E00
0E00
0E00
0E00
0F00
0700
0780
03C0
01C0
03C0
0700
0700
0E00
0E00
0E00
0E00
0E00
0E00
0E00
0E00
0E00
0E00
0E00
FE00
FC00
ENDCHAR
STARTCHAR asciitilde
ENCODING 126
SWIDTH 600 0
DWIDTH 22 0
BBX 16 6 3 6
BITMAP
3800
7F02
FFC7
C3FE
80FE
0038
ENDCHAR
STARTCHAR uni00A0
ENCODING 160
SWIDTH 305 0
DWIDTH 11 0
BBX 1 1 0 0
BITMAP
00
ENDCHAR
STARTCHAR exclamdown
ENCODING 161
SWIDTH 278 0
DWIDTH 10 0
BBX 4 25 3 -7
BITMAP
60
F0
F0
60
00
00
00
60
60
60
60
E0
E0
F0
F0
F0
F0
F0
F0
F0
F0
F0
F0
F0
60
ENDCHAR
STARTCHAR cent
ENCODING 162
SWIDTH 611 0
DWIDTH 22 0
BBX 15 26 3 0
BITMAP
00C0
01C0
01C0
01C0
01C0
0FFC
1FFC
3FF8
79C0
71C0
F1C0
E1C0
F1C0
F1C0
71C0
79C0
3DC0
1FC0
0FFC
07FE
01F8
01C0
01C0
01C0
01C0
00C0
ENDCHAR
STARTCHAR sterling
ENCODING 163
SWIDTH 611 0
DWIDTH 22 0
BBX 20 25 0 0
BITMAP
000FC0
003FF0
00FFF0
00F020
01E000
01C000
01C000
01C000
01C000
01C000
0FFFC0
1FFFC0
0FFFC0
01C000
01C000
01C000
01C000
01C000
01C000
01C000
038000
0FE000
7FFFE0
FFFFE0
F03F80
ENDCHAR
STARTCHAR currency
ENCODING 164
SWIDTH 611 0
DWIDTH 22 0
BBX 18 18 2 4
BITMAP
40C080
EFF9C0
7FFF80
3E1F00
780780
700380
F003C0
E001C0
E001C0
E001C0
E001C0
E003C0
700380
780780
3C0F00
7FFF80
EFFDC0
43F080
ENDCHAR
STARTCHAR yen
ENCODING 165
SWIDTH 611 0
DWIDTH 22 0
BBX 18 25 2 0
BITMAP
E001C0
E001C0
F003C0
F003C0
700380
780780
380700
3C0F00
FE1FC0
FF3FC0
FFFFC0
07F800
01E000
7FFF80
FFFF80
7FFF80
01E000
01E000
01E000
01E000
01E000
01E000
01E000
01E000
00C000
ENDCHAR
STARTCHAR brokenbar
ENCODING 166
SWIDTH 222 0
DWIDTH 8 0
BBX 2 31 3 -7
BITMAP
C0
C0
C0
C0
C0
C0
C0
C0
C0
C0
C0
C0
C0
00
00
00
00
00
C0
C0
C0
C0
C0
C0
C0
C0
C0
C0
C0
C0
C0
ENDCHAR
STARTCHAR section
ENCODING 167
SWIDTH 500 0
DWIDTH 18 0
BBX 16 25 1 0
BITMAP
1FF8
3FFC
3FF8
7800
7000
7800
3F00
7FE0
7FF8
F3FC
E07E
781E
7F0E
3FE7
0FFE
01FE
003E
001E
000E
000E
000E
003C
7FFC
FFF8
7FE0
ENDCHAR
STARTCHAR dieresis
ENCODING 168
SWIDTH 222 0
DWIDTH 8 0
BBX 12 4 -2 21
BITMAP
6060
F0F0
F0F0
6060
ENDCHAR
STARTCHAR copyright
ENCODING 169
SWIDTH 800 0
DWIDTH 29 0
BBX 25 25 2 0
BITMAP
007F0000
03FFC000
07E3F000
0F007800
1C001C00
387F0E00
71FF8700
71C1C700
E380E300
E380E380
E7000380
E7000380
E7000380
E7000380
E7000380
E380E380
E3C0C700
71F7C700
70FF8E00
383E0E00
1C001C00
0F007800
07E3F000
01FFC000
007F0000
ENDCHAR
STARTCHAR ordfeminine
ENCODING 170
SWIDTH 300 0
DWIDTH 11 0
BBX 10 11 0 14
BITMAP
7F00
7FC0
00C0
03C0
3FC0
70C0
E0C0
C0C0
C1C0
7FC0
3EC0
ENDCHAR
STARTCHAR guillemotleft
ENCODING 171
SWIDTH 444 0
DWIDTH 16 0
BBX 12 14 1 2
BITMAP
0C30
1C30
1C70
3870
38E0
71E0
F1C0
71C0
70E0
38E0
3870
1C70
1C30
0C30
ENDCHAR
STARTCHAR logicalnot
ENCODING 172
SWIDTH 600 0
DWIDTH 22 0
BBX 18 10 2 4
BITMAP
FFFFC0
FFFFC0
FFFFC0
0001C0
0001C0
0001C0
0001C0
0001C0
0001C0
0001C0
ENDCHAR
STARTCHAR uni00AD
ENCODING 173
SWIDTH 333 0
DWIDTH 12 0
BBX 8 3 2 8
BITMAP
FF
FF
FF
ENDCHAR
STARTCHAR registered
ENCODING 174
SWIDTH 800 0
DWIDTH 29 0
BBX 25 25 2 0
BITMAP
007F0000
03FFC000
07E3F000
0F007800
1C001C00
39FF0E00
71FFC700
71C1C700
E1C0C300
E1C0C380
E1C1C380
E1FFC380
E1FF0380
E1CE0380
E1C60380
E1C30380
E1C38700
71C18700
71C1CE00
38000E00
1C001C00
0F007800
07E3F000
03FFC000
007F0000
ENDCHAR
STARTCHAR macron
ENCODING 175
SWIDTH 222 0
DWIDTH 8 0
BBX 10 3 -1 22
BITMAP
7F80
FFC0
FFC0
ENDCHAR
STARTCHAR degree
ENCODING 176
SWIDTH 400 0
DWIDTH 14 0
BBX 10 10 2 15
BITMAP
1E00
7F80
71C0
E0C0
C0C0
C0C0
E0C0
71C0
7F80
1F00
ENDCHAR
STARTCHAR plusminus
ENCODING 177
SWIDTH 600 0
DWIDTH 22 0
BBX 18 18 2 0
BITMAP
01C000
01C000
01C000
01C000
01C000
FFFFC0
FFFFC0
FFFFC0
01C000
01C000
01C000
01C000
000000
000000
000000
FFFFC0
FFFFC0
FFFFC0
ENDCHAR
STARTCHAR twosuperior
ENCODING 178
SWIDTH 366 0
DWIDTH 13 0
BBX 11 15 1 10
BITMAP
FF80
FFC0
01C0
00C0
00C0
01C0
0380
0F00
1E00
7800
E000
C000
C000
FFE0
FFE0
ENDCHAR
STARTCHAR threesuperior
ENCODING 179
SWIDTH 366 0
DWIDTH 13 0
BBX 11 15 1 10
BITMAP
FF80
FF80
0700
1C00
7C00
7F80
01C0
00E0
0060
0060
0060
00E0
01C0
FFC0
FF00
ENDCHAR
STARTCHAR acute
ENCODING 180
SWIDTH 222 0
DWIDTH 8 0
BBX 10 5 -1 21
BITMAP
0180
0FC0
3FC0
FE00
E000
ENDCHAR
STARTCHAR mu
ENCODING 181
SWIDTH 556 0
DWIDTH 20 0
BBX 16 25 2 -7
BITMAP
6006
F00F
F00F
F00F
F00F
F00F
F00F
F00F
F00F
F00F
F00F
F00F
F00F
F01F
F83F
FFF7
FFF7
FFC6
F000
F000
F000
F000
F000
F000
6000
ENDCHAR
STARTCHAR paragraph
ENCODING 182
SWIDTH 600 0
DWIDTH 22 0
BBX 16 25 2 0
BITMAP
0FFF
3FFF
7FC7
FFC7
FFC7
FFC7
FFC7
FFC7
FFC7
FFC7
7FC7
3FC7
1FC7
01C7
01C7
01C7
01C7
01C7
01C7
01C7
01C7
01C7
01C7
01C7
01C7
ENDCHAR
STARTCHAR periodcentered
ENCODING 183
SWIDTH 305 0
DWIDTH 11 0
BBX 3 4 4 7
BITMAP
E0
E0
E0
E0
ENDCHAR
STARTCHAR cedilla
ENCODING 184
SWIDTH 222 0
DWIDTH 8 0
BBX 9 8 0 -7
BITMAP
1800
1800
1800
1F00
0780
0380
E700
7E00
ENDCHAR
STARTCHAR onesuperior
ENCODING 185
SWIDTH 366 0
DWIDTH 13 0
BBX 8 15 2 10
BITMAP
38
FC
5C
1C
1C
1C
1C
1C
1C
1C
1C
1C
1C
FF
FF
ENDCHAR
STARTCHAR ordmasculine
ENCODING 186
SWIDTH 334 0
DWIDTH 12 0
BBX 12 11 0 14
BITMAP
0F00
3FC0
70E0
6060
E070
E070
E070
6060
70E0
3FC0
0F00
ENDCHAR
STARTCHAR guillemotright
ENCODING 187
SWIDTH 444 0
DWIDTH 16 0
BBX 12 14 3 2
BITMAP
C300
C380
E380
E1C0
71C0
78E0
38F0
38E0
70E0
71C0
E1C0
E380
C380
C300
ENDCHAR
STARTCHAR onequarter
ENCODING 188
SWIDTH 916 0
DWIDTH 33 0
BBX 29 25 2 0
BITMAP
38000600
FC000E00
5C000E00
1C001C00
1C003800
1C003800
1C007000
1C00E000
1C00E000
1C01C000
1C0381C0
1C0387C0
1C070EC0
FF0E1CC0
FF0C38C0
001C38C0
003870C0
007060C0
007060C0
00E0E0C0
01C0FFF8
01C0FFF8
038000C0
070000C0
060000C0
ENDCHAR
STARTCHAR onehalf
ENCODING 189
SWIDTH 916 0
DWIDTH 33 0
BBX 28 25 2 0
BITMAP
38000C00
F8000C00
58001C00
18003800
18007000
18007000
1800E000
1801C000
1801C000
18038000
18073FC0
18073FE0
180E00F0
FF1C0070
FF180070
00380070
007000E0
00E003C0
00E00F80
01C01E00
03803800
03803000
07007000
0E007FF0
04003FF0
ENDCHAR
STARTCHAR threequarters
ENCODING 190
SWIDTH 916 0
DWIDTH 33 0
BBX 30 25 1 0
BITMAP
7FC00180
7FC00380
03800700
0E000700
3E000E00
3FC01C00
01E01C00
00703800
00707000
00707000
0070E0F0
0071C1F0
00E183B0
FFC38730
7F870E30
00060C30
000E1C30
001C1830
00183830
00383830
00703FFC
00E03FFC
00E00030
01C00030
01800030
ENDCHAR
STARTCHAR questiondown
ENCODING 191
SWIDTH 500 0
DWIDTH 18 0
BBX 15 25 2 -7
BITMAP
00E0
00E0
00E0
00E0
0000
0000
00C0
00E0
00E0
01E0
03C0
07C0
0F80
1F00
3C00
7800
F000
F000
E000
E000
F000
F000
7FFE
3FFE
0FFE
ENDCHAR
STARTCHAR Agrave
ENCODING 192
SWIDTH 667 0
DWIDTH 24 0
BBX 22 31 1 0
BITMAP
01C000
03F000
03FE00
007F00
000700
000000
003000
00F800
00FC00
01FE00
03DE00
038F00
078700
070780
0F0380
0E03C0
1F81C0
1FF1E0
1FFCE0
3C7FE0
380FF0
3803F0
7801F0
7000F8
700078
700078
F00038
F0003C
E0003C
E0003C
E0001C
ENDCHAR
STARTCHAR Aacute
ENCODING 193
SWIDTH 667 0
DWIDTH 24 0
BBX 22 31 1 0
BITMAP
000E00
003F00
01FF00
03F800
038000
000000
003000
00F800
00FC00
01FE00
03DE00
038F00
078700
070780
0F0380
0E03C0
1F81C0
1FF1E0
1FFCE0
3C7FE0
380FF0
3803F0
7801F0
7000F8
700078
700078
F00038
F0003C
E0003C
E0003C
E0001C
ENDCHAR
STARTCHAR Acircumflex
ENCODING 194
SWIDTH 667 0
DWIDTH 24 0
BBX 22 31 1 0
BITMAP
007800
00FC00
01CE00
03CF00
038700
000000
003000
00F800
00FC00
01FE00
03DE00
038F00
078700
070780
0F0380
0E03C0
1F81C0
1FF1E0
1FFCE0
3C7FE0
380FF0
3803F0
7801F0
7000F8
700078
700078
F00038
F0003C
E0003C
E0003C
E0001C
ENDCHAR
STARTCHAR Atilde
ENCODING 195
SWIDTH 667 0
DWIDTH 24 0
BBX 22 31 1 0
BITMAP
000080
03F180
07FF80
063F00
040000
000000
003000
00F800
00FC00
01FE00
03DE00
038F00
078700
070780
0F0380
0E03C0
1F81C0
1FF1E0
1FFCE0
3C7FE0
380FF0
3803F0
7801F0
7000F8
700078
700078
F00038
F0003C
E0003C
E0003C
E0001C
ENDCHAR
STARTCHAR Adieresis
ENCODING 196
SWIDTH 667 0
DWIDTH 24 0
BBX 22 30 1 0
BITMAP
030300
078780
078780
030300
000000
003000
00F800
00FC00
01FE00
03DE00
038F00
078700
070780
0F0380
0E03C0
1F81C0
1FF1E0
1FFCE0
3C7FE0
380FF0
3803F0
7801F0
7000F8
700078
700078
F00038
F0003C
E0003C
E0003C
E0001C
ENDCHAR
STARTCHAR Aring
ENCODING 197
SWIDTH 667 0
DWIDTH 24 0
BBX 22 33 1 0
BITMAP
007800
00FC00
00C600
008600
00C600
00FC00
007800
000000
003000
00F800
00FC00
01FE00
03DE00
038F00
078700
070780
0F0380
0E03C0
1F81C0
1FF1E0
1FFCE0
3C7FE0
380FF0
3803F0
7801F0
7000F8
700078
700078
F00038
F0003C
E0003C
E0003C
E0001C
ENDCHAR
STARTCHAR AE
ENCODING 198
SWIDTH 944 0
DWIDTH 34 0
BBX 32 25 1 0
BITMAP
0001FFFE
0007FFFE
000FFFFE
001F7000
003C7000
00787000
00F07000
01E077FC
01C0FFFE
03C7FFFC
079FF000
077E7000
0EF87000
0FE07000
1F807000
3F007000
3E007000
7C007000
78007000
70007000
F0007000
E0007000
E0007FFE
C0007FFF
C0007FFE
ENDCHAR
STARTCHAR Ccedilla
ENCODING 199
SWIDTH 611 0
DWIDTH 22 0
BBX 20 32 1 -7
BITMAP
01FFE0
07FFE0
1FFFE0
3F0000
3C0000
780000
780000
700000
700000
F00000
F00000
700000
700000
700000
780000
380000
3C0000
1E0000
1F0000
0F8000
07E000
03FC00
01FFF0
007FF0
001FE0
001800
001800
001F00
000380
000380
00E780
007E00
ENDCHAR
STARTCHAR Egrave
ENCODING 200
SWIDTH 556 0
DWIDTH 20 0
BBX 16 31 3 0
BITMAP
1C00
3F80
1FE0
03F0
0030
0000
FFFE
FFFF
FFFE
E000
E000
E000
E000
FFFE
FFFE
FFFE
E000
E000
E000
E000
E000
E000
E000
E000
E000
E000
E000
E000
FFFE
FFFF
FFFE
ENDCHAR
STARTCHAR Eacute
ENCODING 201
SWIDTH 556 0
DWIDTH 20 0
BBX 16 31 3 0
BITMAP
00F0
03F0
1FE0
3F00
1000
0000
FFFE
FFFF
FFFE
E000
E000
E000
E000
FFFE
FFFE
FFFE
E000
E000
E000
E000
E000
E000
E000
E000
E000
E000
E000
E000
FFFE
FFFF
FFFE
ENDCHAR
STARTCHAR Ecircumflex
ENCODING 202
SWIDTH 556 0
DWIDTH 20 0
BBX 16 31 3 0
BITMAP
0780
0FC0
0EE0
1C70
3838
0000
FFFE
FFFF
FFFE
E000
E000
E000
E000
FFFE
FFFE
FFFE
E000
E000
E000
E000
E000
E000
E000
E000
E000
E000
E000
E000
FFFE
FFFF
FFFE
ENDCHAR
STARTCHAR Edieresis
ENCODING 203
SWIDTH 556 0
DWIDTH 20 0
BBX 16 31 3 0
BITMAP
3830
7878
7878
3830
0000
0000
FFFE
FFFF
FFFE
E000
E000
E000
E000
FFFE
FFFE
FFFE
E000
E000
E000
E000
E000
E000
E000
E000
E000
E000
E000
E000
FFFE
FFFF
FFFE
ENDCHAR
STARTCHAR Igrave
ENCODING 204
SWIDTH 222 0
DWIDTH 8 0
BBX 10 31 -1 0
BITMAP
F000
FC00
7F80
0FC0
01C0
0000
0C00
1E00
1E00
1E00
1E00
1E00
1E00
1E00
1E00
1E00
1E00
1E00
1E00
1E00
1E00
1E00
1E00
1E00
1E00
1E00
1E00
1E00
1E00
1E00
0C00
ENDCHAR
STARTCHAR Iacute
ENCODING 205
SWIDTH 222 0
DWIDTH 8 0
BBX 10 31 -1 0
BITMAP
0380
0FC0
7F80
FC00
E000
0000
0C00
1E00
1E00
1E00
1E00
1E00
1E00
1E00
1E00
1E00
1E00
1E00
1E00
1E00
1E00
1E00
1E00
1E00
1E00
1E00
1E00
1E00
1E00
1E00
0C00
ENDCHAR
STARTCHAR Icircumflex
ENCODING 206
SWIDTH 222 0
DWIDTH 8 0
BBX 10 31 -1 0
BITMAP
1E00
3F00
7380
F3C0
E1C0
0000
0C00
1E00
1E00
1E00
1E00
1E00
1E00
1E00
1E00
1E00
1E00
1E00
1E00
1E00
1E00
1E00
1E00
1E00
1E00
1E00
1E00
1E00
1E00
1E00
0C00
ENDCHAR
STARTCHAR Idieresis
ENCODING 207
SWIDTH 222 0
DWIDTH 8 0
BBX 12 30 -2 0
BITMAP
6060
F0F0
F0F0
6060
0000
0600
0F00
0F00
0F00
0F00
0F00
0F00
0F00
0F00
0F00
0F00
0F00
0F00
0F00
0F00
0F00
0F00
0F00
0F00
0F00
0F00
0F00
0F00
0F00
0600
ENDCHAR
STARTCHAR Eth
ENCODING 208
SWIDTH 667 0
DWIDTH 24 0
BBX 22 25 0 0
BITMAP
1FC000
1FF800
1FFE00
1C7F80
1C0FC0
1C03E0
1C01F0
1C00F8
1C0078
1C0038
FFF03C
FFF81C
FFF01C
1C001C
1C001C
1C001C
1C001C
1C001C
1C001C
1C003C
1C0078
1C01F8
1FFFF0
1FFFC0
1FFF00
ENDCHAR
STARTCHAR Ntilde
ENCODING 209
SWIDTH 611 0
DWIDTH 22 0
BBX 16 31 3 0
BITMAP
0704
1FFC
3FF8
31F8
2000
0000
E003
F007
F807
FC07
FE07
FF07
EF87
E7E7
E1FF
E0FF
E00F
E007
E007
E007
E007
E007
E007
E007
E007
E007
E007
E007
E007
E007
C003
ENDCHAR
STARTCHAR Ograve
ENCODING 210
SWIDTH 722 0
DWIDTH 26 0
BBX 23 31 1 0
BITMAP
00E000
01F800
01FF00
003F80
000380
000000
007E00
03FF80
07FFE0
0F81F0
1F00F8
3C007C
3C003C
78001E
78001E
70000E
70000E
F0000E
F0000E
F0000E
70000E
70000E
78001E
78001E
3C003C
3C007C
1E00F8
0F81F0
07FFE0
03FFC0
007E00
ENDCHAR
STARTCHAR Oacute
ENCODING 211
SWIDTH 722 0
DWIDTH 26 0
BBX 23 31 1 0
BITMAP
000700
001F80
00FF80
01FC00
01C000
000000
007E00
03FF80
07FFE0
0F81F0
1F00F8
3C007C
3C003C
78001E
78001E
70000E
70000E
F0000E
F0000E
F0000E
70000E
70000E
78001E
78001E
3C003C
3C007C
1E00F8
0F81F0
07FFE0
03FFC0
007E00
ENDCHAR
STARTCHAR Ocircumflex
ENCODING 212
SWIDTH 722 0
DWIDTH 26 0
BBX 23 31 1 0
BITMAP
003C00
007E00
00E700
01E780
01C380
000000
007E00
03FF80
07FFE0
0F81F0
1F00F8
3C007C
3C003C
78001E
78001E
70000E
70000E
F0000E
F0000E
F0000E
70000E
70000E
78001E
78001E
3C003C
3C007C
1E00F8
0F81F0
07FFE0
03FFC0
007E00
ENDCHAR
STARTCHAR Otilde
ENCODING 213
SWIDTH 722 0
DWIDTH 26 0
BBX 23 31 1 0
BITMAP
000040
01F8C0
03FFC0
031F80
020000
000000
007E00
03FF80
07FFE0
0F81F0
1F00F8
3C007C
3C003C
78001E
78001E
70000E
70000E
F0000E
F0000E
F0000E
70000E
70000E
78001E
78001E
3C003C
3C007C
1E00F8
0F81F0
07FFE0
03FFC0
007E00
ENDCHAR
STARTCHAR Odieresis
ENCODING 214
SWIDTH 722 0
DWIDTH 26 0
BBX 23 30 1 0
BITMAP
018180
03C3C0
03C3C0
018180
000000
007E00
03FF80
07FFE0
0F81F0
1F00F8
3C007C
3C003C
78001E
78001E
70000E
70000E
F0000E
F0000E
F0000E
70000E
70000E
78001E
78001E
3C003C
3C007C
1E00F8
0F81F0
07FFE0
03FFC0
007E00
ENDCHAR
STARTCHAR multiply
ENCODING 215
SWIDTH 600 0
DWIDTH 22 0
BBX 18 18 2 0
BITMAP
400100
E00380
F007C0
780F00
3C1E00
1E3C00
0F7800
07F000
03E000
03E000
07F000
0F7800
1E3C00
3C1E00
780F00
F00780
E00380
400100
ENDCHAR
STARTCHAR Oslash
ENCODING 216
SWIDTH 722 0
DWIDTH 26 0
BBX 23 31 1 -3
BITMAP
000020
000070
000060
007EE0
03FFC0
07FFE0
0F81F0
1F03F8
3C03F8
3C073C
78071E
780E1E
700E0E
701C0E
F01C0E
F0380E
F0380E
70700E
70700E
78E01E
78E01E
3CC03C
3DC07C
1F80F8
0F81F0
07FFE0
07FFC0
067E00
0E0000
0C0000
1C0000
ENDCHAR
STARTCHAR Ugrave
ENCODING 217
SWIDTH 611 0
DWIDTH 22 0
BBX 20 31 1 0
BITMAP
038000
07E000
03FC00
007E00
000E00
000000
180180
3801C0
3801C0
3801C0
3801C0
3801C0
3801C0
7001E0
7000E0
7000E0
7000E0
7000E0
7000E0
7000E0
F000E0
E000F0
F000F0
F000F0
F000E0
7801E0
7C03E0
3F0FC0
1FFF80
0FFF00
01F800
ENDCHAR
STARTCHAR Uacute
ENCODING 218
SWIDTH 611 0
DWIDTH 22 0
BBX 20 31 1 0
BITMAP
001C00
007E00
03FC00
07E000
070000
000000
180180
3801C0
3801C0
3801C0
3801C0
3801C0
3801C0
7001E0
7000E0
7000E0
7000E0
7000E0
7000E0
7000E0
F000E0
E000F0
F000F0
F000F0
F000E0
7801E0
7C03E0
3F0FC0
1FFF80
0FFF00
01F800
ENDCHAR
STARTCHAR Ucircumflex
ENCODING 219
SWIDTH 611 0
DWIDTH 22 0
BBX 20 31 1 0
BITMAP
00F000
01F800
039C00
079E00
070E00
000000
180180
3801C0
3801C0
3801C0
3801C0
3801C0
3801C0
7001E0
7000E0
7000E0
7000E0
7000E0
7000E0
7000E0
F000E0
E000F0
F000F0
F000F0
F000E0
7801E0
7C03E0
3F0FC0
1FFF80
0FFF00
01F800
ENDCHAR
STARTCHAR Udieresis
ENCODING 220
SWIDTH 611 0
DWIDTH 22 0
BBX 20 30 1 0
BITMAP
060600
0F0F00
0F0F00
060600
000000
180180
3801C0
3801C0
3801C0
3801C0
3801C0
3801C0
7001E0
7000E0
7000E0
7000E0
7000E0
7000E0
7000E0
F000E0
E000F0
F000F0
F000F0
F000E0
7801E0
7C03E0
3F0FC0
1FFF80
0FFF00
01F800
ENDCHAR
STARTCHAR Yacute
ENCODING 221
SWIDTH 556 0
DWIDTH 20 0
BBX 18 31 1 0
BITMAP
001C00
00FC00
03FC00
07E000
060000
000000
E001C0
E001C0
F003C0
F003C0
700380
780780
380700
3C0F00
1E1E00
0F3C00
0FFC00
07F800
01E000
01E000
01E000
01E000
01E000
01E000
01E000
01E000
01E000
01E000
01E000
01E000
00C000
ENDCHAR
STARTCHAR Thorn
ENCODING 222
SWIDTH 556 0
DWIDTH 20 0
BBX 17 25 3 0
BITMAP
E00000
E00000
E00000
E00000
E00000
FFFC00
FFFF00
FFFF80
E00780
E00780
E00780
E00700
E01F00
E07E00
E3FC00
FFF000
FF8000
FC0000
E00000
E00000
E00000
E00000
E00000
E00000
E00000
ENDCHAR
STARTCHAR germandbls
ENCODING 223
SWIDTH 556 0
DWIDTH 20 0
BBX 18 25 1 0
BITMAP
07E000
1FF800
1FFC00
3C1C00
381C00
383C00
387800
F8F800
F9E000
FBC000
3B8000
3B8000
3BF000
39FC00
387F00
380F80
3803C0
3801C0
3801C0
3801C0
3801C0
3807C0
3FFF80
3FFF00
3FFC00
ENDCHAR
STARTCHAR agrave
ENCODING 224
SWIDTH 500 0
DWIDTH 18 0
BBX 16 25 0 0
BITMAP
0F00
0FC0
0FF8
00FC
0018
0000
0000
3FF8
3FFC
3FFE
000E
0007
0007
00FF
0FFF
3FF7
7C07
7807
7007
F007
700F
700F
7EFF
3FF7
0FC6
ENDCHAR
STARTCHAR aacute
ENCODING 225
SWIDTH 500 0
DWIDTH 18 0
BBX 16 25 0 0
BITMAP
0038
01FC
07F8
0FC0
0C00
0000
0000
3FF8
3FFC
3FFE
000E
0007
0007
00FF
0FFF
3FF7
7C07
7807
7007
F007
700F
700F
7EFF
3FF7
0FC6
ENDCHAR
STARTCHAR acircumflex
ENCODING 226
SWIDTH 500 0
DWIDTH 18 0
BBX 16 25 0 0
BITMAP
01E0
03F0
0778
0E38
1C1C
0000
0000
3FF8
3FFC
3FFE
000E
0007
0007
00FF
0FFF
3FF7
7C07
7807
7007
F007
700F
700F
7EFF
3FF7
0FC6
ENDCHAR
STARTCHAR atilde
ENCODING 227
SWIDTH 500 0
DWIDTH 18 0
BBX 16 25 0 0
BITMAP
0706
0FFE
1FFC
1078
0000
0000
0000
3FF8
3FFC
3FFE
000E
0007
0007
00FF
0FFF
3FF7
7C07
7807
7007
F007
700F
700F
7EFF
3FF7
0FC6
ENDCHAR
STARTCHAR adieresis
ENCODING 228
SWIDTH 500 0
DWIDTH 18 0
BBX 16 25 0 0
BITMAP
0C1C
1E1E
1E1E
0C1C
0000
0000
0000
3FF8
3FFC
3FFE
000E
0007
0007
00FF
0FFF
3FF7
7C07
7807
7007
F007
700F
700F
7EFF
3FF7
0FC6
ENDCHAR
STARTCHAR aring
ENCODING 229
SWIDTH 500 0
DWIDTH 18 0
BBX 16 27 0 0
BITMAP
01E0
03F0
0630
0610
0630
03F0
01E0
0000
0000
3FF8
3FFC
3FFE
000E
0007
0007
00FF
0FFF
3FF7
7C07
7807
7007
F007
700F
700F
7EFF
3FF7
0FC6
ENDCHAR
STARTCHAR ae
ENCODING 230
SWIDTH 833 0
DWIDTH 30 0
BBX 28 18 1 0
BITMAP
7FF07E00
7FF9FF80
7FFFFFC0
001F81C0
001F00E0
000E00E0
01FFFFE0
1FFFFFE0
3FFE0000
7C0E0000
F00E0000
E00E0000
E00F0000
E01F0000
F01F8000
7FFFFFE0
3FF9FFF0
1FE07FE0
ENDCHAR
STARTCHAR ccedilla
ENCODING 231
SWIDTH 500 0
DWIDTH 18 0
BBX 17 25 1 -7
BITMAP
07FE00
1FFF00
3FFE00
7C0000
780000
700000
F00000
F00000
F00000
700000
700000
780000
380000
3E0000
1F0000
0FFF00
03FF80
00FF00
004000
004000
00F800
001C00
000C00
071C00
01F800
ENDCHAR
STARTCHAR egrave
ENCODING 232
SWIDTH 556 0
DWIDTH 20 0
BBX 18 25 1 0
BITMAP
070000
0FC000
07F800
01FC00
001C00
000000
000000
03F800
0FFE00
1FFF00
3C0F00
780380
780380
7003C0
7FFFC0
FFFFC0
F00000
700000
700000
700000
780000
3C0000
1FFF80
0FFFC0
03FF80
ENDCHAR
STARTCHAR eacute
ENCODING 233
SWIDTH 556 0
DWIDTH 20 0
BBX 18 25 1 0
BITMAP
001C00
00FC00
03FC00
0FE000
060000
000000
000000
03F800
0FFE00
1FFF00
3C0F00
780380
780380
7003C0
7FFFC0
FFFFC0
F00000
700000
700000
700000
780000
3C0000
1FFF80
0FFFC0
03FF80
ENDCHAR
STARTCHAR ecircumflex
ENCODING 234
SWIDTH 556 0
DWIDTH 20 0
BBX 18 25 1 0
BITMAP
01E000
03F000
03B800
071C00
0E0E00
000000
000000
03F800
0FFE00
1FFF00
3C0F00
780380
780380
7003C0
7FFFC0
FFFFC0
F00000
700000
700000
700000
780000
3C0000
1FFF80
0FFFC0
03FF80
ENDCHAR
STARTCHAR edieresis
ENCODING 235
SWIDTH 556 0
DWIDTH 20 0
BBX 18 25 1 0
BITMAP
0E0C00
1E1E00
1E1E00
0E0C00
000000
000000
000000
03F800
0FFE00
1FFF00
3C0F00
780380
780380
7003C0
7FFFC0
FFFFC0
F00000
700000
700000
700000
780000
3C0000
1FFF80
0FFFC0
03FF80
ENDCHAR
STARTCHAR igrave
ENCODING 236
SWIDTH 222 0
DWIDTH 8 0
BBX 10 25 -1 0
BITMAP
7000
FC00
FF80
0FC0
01C0
0000
0000
0C00
1E00
1E00
1E00
1E00
1E00
1E00
1E00
1E00
1E00
1E00
1E00
1E00
1E00
1E00
1E00
1E00
0C00
ENDCHAR
STARTCHAR iacute
ENCODING 237
SWIDTH 222 0
DWIDTH 8 0
BBX 10 25 -1 0
BITMAP
0380
0FC0
7FC0
FC00
E000
0000
0000
0C00
1E00
1E00
1E00
1E00
1E00
1E00
1E00
1E00
1E00
1E00
1E00
1E00
1E00
1E00
1E00
1E00
0C00
ENDCHAR
STARTCHAR icircumflex
ENCODING 238
SWIDTH 222 0
DWIDTH 8 0
BBX 10 25 -1 0
BITMAP
1E00
3F00
7380
F3C0
E1C0
0000
0000
0C00
1E00
1E00
1E00
1E00
1E00
1E00
1E00
1E00
1E00
1E00
1E00
1E00
1E00
1E00
1E00
1E00
0C00
ENDCHAR
STARTCHAR idieresis
ENCODING 239
SWIDTH 222 0
DWIDTH 8 0
BBX 12 25 -2 0
BITMAP
6060
F0F0
F0F0
6060
0000
0000
0000
0600
0F00
0F00
0F00
0F00
0F00
0F00
0F00
0F00
0F00
0F00
0F00
0F00
0F00
0F00
0F00
0F00
0600
ENDCHAR
STARTCHAR eth
ENCODING 240
SWIDTH 556 0
DWIDTH 20 0
BBX 16 27 2 0
BITMAP
0008
3C3C
3F78
1FF0
03E0
0FF0
1E78
0C3C
001C
031E
1FEE
3FFF
7C3F
700F
F00F
E007
E007
E007
E007
E007
E007
E007
F00E
781E
3FFC
1FF8
07E0
ENDCHAR
STARTCHAR ntilde
ENCODING 241
SWIDTH 556 0
DWIDTH 20 0
BBX 16 25 2 0
BITMAP
0004
1F8C
3FFC
31F8
2000
0000
0000
63F0
EFF8
EFFC
FC1E
F80E
F00F
F00F
F00F
F00F
F00F
F00F
F00F
F00F
F00F
F00F
F00F
F00F
6006
ENDCHAR
STARTCHAR ograve
ENCODING 242
SWIDTH 556 0
DWIDTH 20 0
BBX 18 25 1 0
BITMAP
060000
0FC000
0FF000
01FC00
001C00
000000
000000
03F000
0FFC00
1FFE00
3C0F00
780700
700380
700380
F003C0
E003C0
F003C0
F003C0
700380
700380
780700
3C0F00
1FFE00
0FFC00
03F000
ENDCHAR
STARTCHAR oacute
ENCODING 243
SWIDTH 556 0
DWIDTH 20 0
BBX 18 25 1 0
BITMAP
001800
00FC00
07FC00
0FE000
0E0000
000000
000000
03F000
0FFC00
1FFE00
3C0F00
780700
700380
700380
F003C0
E003C0
F003C0
F003C0
700380
700380
780700
3C0F00
1FFE00
0FFC00
03F000
ENDCHAR
STARTCHAR ocircumflex
ENCODING 244
SWIDTH 556 0
DWIDTH 20 0
BBX 18 25 1 0
BITMAP
01E000
03F000
073800
0F3C00
0E1C00
000000
000000
03F000
0FFC00
1FFE00
3C0F00
780700
700380
700380
F003C0
E003C0
F003C0
F003C0
700380
700380
780700
3C0F00
1FFE00
0FFC00
03F000
ENDCHAR
STARTCHAR otilde
ENCODING 245
SWIDTH 556 0
DWIDTH 20 0
BBX 18 25 1 0
BITMAP
000200
0FC600
1FFE00
18FC00
100000
000000
000000
03F000
0FFC00
1FFE00
3C0F00
780700
700380
700380
F003C0
E003C0
F003C0
F003C0
700380
700380
780700
3C0F00
1FFE00
0FFC00
03F000
ENDCHAR
STARTCHAR odieresis
ENCODING 246
SWIDTH 556 0
DWIDTH 20 0
BBX 18 25 1 0
BITMAP
0C0C00
1E1E00
1E1E00
0C0C00
000000
000000
000000
03F000
0FFC00
1FFE00
3C0F00
780700
700380
700380
F003C0
E003C0
F003C0
F003C0
700380
700380
780700
3C0F00
1FFE00
0FFC00
03F000
ENDCHAR
STARTCHAR divide
ENCODING 247
SWIDTH 600 0
DWIDTH 22 0
BBX 18 20 2 -1
BITMAP
01E000
03E000
03E000
03E000
01C000
000000
000000
000000
FFFFC0
FFFFC0
FFFFC0
000000
000000
000000
000000
01E000
03E000
03E000
03E000
01C000
ENDCHAR
STARTCHAR oslash
ENCODING 248
SWIDTH 556 0
DWIDTH 20 0
BBX 18 24 1 -3
BITMAP
000600
000600
000E00
03FC00
0FFC00
1FFE00
3C3F00
783700
707380
706380
F0E3C0
E0C3C0
F1C3C0
F183C0
738380
730380
7F0700
3E0F00
1FFE00
0FFC00
1FF000
180000
380000
100000
ENDCHAR
STARTCHAR ugrave
ENCODING 249
SWIDTH 556 0
DWIDTH 20 0
BBX 16 25 2 0
BITMAP
0E00
1F80
1FF0
01F8
0038
0000
0000
6006
F00F
F00F
F00F
F00F
F00F
F00F
F00F
F00F
F00F
F00F
F00F
F00F
701F
783F
3FF7
1FF7
0FC6
ENDCHAR
STARTCHAR uacute
ENCODING 250
SWIDTH 556 0
DWIDTH 20 0
BBX 16 25 2 0
BITMAP
0070
01F8
0FF8
1F80
1C00
0000
0000
6006
F00F
F00F
F00F
F00F
F00F
F00F
F00F
F00F
F00F
F00F
F00F
F00F
701F
783F
3FF7
1FF7
0FC6
ENDCHAR
STARTCHAR ucircumflex
ENCODING 251
SWIDTH 556 0
DWIDTH 20 0
BBX 16 25 2 0
BITMAP
03C0
07E0
0E70
1E78
1C38
0000
0000
6006
F00F
F00F
F00F
F00F
F00F
F00F
F00F
F00F
F00F
F00F
F00F
F00F
701F
783F
3FF7
1FF7
0FC6
ENDCHAR
STARTCHAR udieresis
ENCODING 252
SWIDTH 556 0
DWIDTH 20 0
BBX 16 25 2 0
BITMAP
1818
3C3C
3C3C
1818
0000
0000
0000
6006
F00F
F00F
F00F
F00F
F00F
F00F
F00F
F00F
F00F
F00F
F00F
F00F
701F
783F
3FF7
1FF7
0FC6
ENDCHAR
STARTCHAR yacute
ENCODING 253
SWIDTH 500 0
DWIDTH 18 0
BBX 16 32 1 -7
BITMAP
0070
01F8
0FF8
1F80
1C00
0000
0000
E003
E007
E007
E007
F007
F007
700F
700E
780E
381E
3C1C
1C3C
1E38
0E78
0F70
07E0
03E0
03C0
03C0
0780
0F00
0F00
1E00
1C00
1800
ENDCHAR
STARTCHAR thorn
ENCODING 254
SWIDTH 556 0
DWIDTH 20 0
BBX 17 32 2 -7
BITMAP
600000
E00000
E00000
E00000
E00000
E00000
E00000
FF8000
FFE000
FFF800
E0FC00
E03E00
E00E00
E00F00
E00700
E00780
E00780
E00780
E00780
E00700
E00F00
E01E00
FFFE00
FFFC00
FFE000
E00000
E00000
E00000
E00000
E00000
E00000
600000
ENDCHAR
STARTCHAR ydieresis
ENCODING 255
SWIDTH 500 0
DWIDTH 18 0
BBX 16 32 1 -7
BITMAP
1818
3C3C
3C3C
1818
0000
0000
0000
E003
E007
E007
E007
F007
F007
700F
700E
780E
381E
3C1C
1C3C
1E38
0E78
0F70
07E0
03E0
03C0
03C0
0780
0F00
0F00
1E00
1C00
1800
ENDCHAR
STARTCHAR .notdef
ENCODING -1
SWIDTH 500 0
DWIDTH 18 0
BBX 18 25 0 0
BITMAP
FFFFC0
FFFFC0
E001C0
F003C0
D806C0
D806C0
CC0CC0
C618C0
C618C0
C330C0
C1E0C0
C1E0C0
C0C0C0
C1E0C0
C1E0C0
C330C0
C618C0
C618C0
CC0CC0
D806C0
D806C0
F003C0
E001C0
FFFFC0
FFFFC0
ENDCHAR
STARTCHAR quoteright
ENCODING -1
SWIDTH 222 0
DWIDTH 8 0
BBX 6 9 1 16
BITMAP
18
3C
38
38
78
70
70
E0
E0
ENDCHAR
STARTCHAR quoteleft
ENCODING -1
SWIDTH 222 0
DWIDTH 8 0
BBX 6 9 1 16
BITMAP
E0
E0
F0
70
70
38
38
38
1C
ENDCHAR
STARTCHAR fraction
ENCODING -1
SWIDTH 167 0
DWIDTH 6 0
BBX 18 25 -6 0
BITMAP
0000C0
0001C0
000380
000380
000700
000E00
000E00
001C00
003800
003800
007000
00E000
00C000
01C000
038000
070000
070000
0E0000
1C0000
1C0000
380000
700000
700000
E00000
C00000
ENDCHAR
STARTCHAR florin
ENCODING -1
SWIDTH 611 0
DWIDTH 22 0
BBX 21 32 0 -7
BITMAP
0001F8
0007F8
000FF8
000F00
001E00
001C00
001C00
001C00
003C00
03FFC0
07FFC0
03FFC0
003800
003800
007800
007000
007000
007000
007000
007000
00F000
00E000
00E000
00E000
00E000
00E000
01C000
01C000
07C000
7F8000
FF0000
7C0000
ENDCHAR
STARTCHAR quotedblleft
ENCODING -1
SWIDTH 389 0
DWIDTH 14 0
BBX 11 9 1 16
BITMAP
E380
E380
F3C0
F3C0
71C0
79E0
38E0
38E0
1860
ENDCHAR
STARTCHAR guilsinglleft
ENCODING -1
SWIDTH 278 0
DWIDTH 10 0
BBX 6 14 2 2
BITMAP
0C
1C
3C
38
78
70
F0
F0
70
78
38
1C
1C
08
ENDCHAR
STARTCHAR guilsinglright
ENCODING -1
SWIDTH 278 0
DWIDTH 10 0
BBX 6 14 2 2
BITMAP
C0
E0
F0
70
78
38
3C
3C
38
70
70
E0
E0
40
ENDCHAR
STARTCHAR fi
ENCODING -1
SWIDTH 500 0
DWIDTH 18 0
BBX 16 25 0 0
BITMAP
03FE
0FFF
0FFF
1E07
1C07
1C02
1C00
7FFF
FFFF
7FFF
1C07
1C07
1C07
1C07
1C07
1C07
1C07
1C07
1C07
1C07
1C07
1C07
1C07
1C07
1C07
ENDCHAR
STARTCHAR fl
ENCODING -1
SWIDTH 500 0
DWIDTH 18 0
BBX 15 25 1 0
BITMAP
07FC
1FFE
1FFE
3C0E
380E
380E
380E
FFCE
FFCE
FFCE
380E
380E
380E
380E
380E
380E
380E
380E
380E
380E
380E
380E
380E
380E
380E
ENDCHAR
STARTCHAR endash
ENCODING -1
SWIDTH 500 0
DWIDTH 18 0
BBX 18 2 0 8
BITMAP
FFFFC0
FFFFC0
ENDCHAR
STARTCHAR dagger
ENCODING -1
SWIDTH 389 0
DWIDTH 14 0
BBX 12 25 1 0
BITMAP
0600
0F00
0F00
0F00
0F00
0E00
7FE0
FFF0
7FE0
0600
0600
0600
0600
0E00
0F00
0F00
0F00
0F00
0F00
0F00
0F00
0F00
0F00
0F00
0600
ENDCHAR
STARTCHAR daggerdbl
ENCODING -1
SWIDTH 389 0
DWIDTH 14 0
BBX 12 25 1 0
BITMAP
0600
0F00
0F00
0F00
0F00
0E00
7FE0
FFF0
7FE0
0600
0600
0600
0600
0600
0600
0600
7FE0
FFF0
7FE0
0E00
0F00
0F00
0F00
0F00
0600
ENDCHAR
STARTCHAR bullet
ENCODING -1
SWIDTH 500 0
DWIDTH 18 0
BBX 12 12 3 6
BITMAP
1F80
3FC0
7FE0
FFF0
FFF0
FFF0
FFF0
FFF0
FFF0
7FE0
3FC0
1F00
ENDCHAR
STARTCHAR quotesinglbase
ENCODING -1
SWIDTH 222 0
DWIDTH 8 0
BBX 6 9 1 -4
BITMAP
18
3C
38
38
78
70
70
E0
E0
ENDCHAR
STARTCHAR quotedblbase
ENCODING -1
SWIDTH 389 0
DWIDTH 14 0
BBX 12 10 1 -5
BITMAP
1860
3CF0
38E0
79E0
71C0
71C0
E3C0
E380
E380
0100
ENDCHAR
STARTCHAR quotedblright
ENCODING -1
SWIDTH 389 0
DWIDTH 14 0
BBX 12 10 1 15
BITMAP
1860
3CF0
38E0
79E0
71C0
71C0
E3C0
E380
E380
0100
ENDCHAR
STARTCHAR ellipsis
ENCODING -1
SWIDTH 1000 0
DWIDTH 36 0
BBX 28 4 4 0
BITMAP
60060060
F00F00F0
F00F00F0
60060060
ENDCHAR
STARTCHAR perthousand
ENCODING -1
SWIDTH 1000 0
DWIDTH 36 0
BBX 36 25 0 0
BITMAP
1F00C00000
3F80C00000
7FC1C00000
F0E1800000
E0E3800000
E063000000
E067000000
E0E6000000
F0EE000000
7FCE000000
3FDC000000
1F1C000000
0038000000
0038F00F80
0073FC3FC0
0077FE3FE0
00E70E70E0
00EE077070
01CE076070
01CE07E070
038E077070
03870E70F0
0707FE3FE0
0703FC3FC0
0600F00F80
ENDCHAR
STARTCHAR circumflex
ENCODING -1
SWIDTH 222 0
DWIDTH 8 0
BBX 10 5 -1 21
BITMAP
1E00
1E00
3F00
7380
E1C0
ENDCHAR
STARTCHAR tilde
ENCODING -1
SWIDTH 222 0
DWIDTH 8 0
BBX 12 4 -2 21
BITMAP
3C10
7FF0
FFE0
83C0
ENDCHAR
STARTCHAR breve
ENCODING -1
SWIDTH 222 0
DWIDTH 8 0
BBX 10 5 -1 21
BITMAP
8040
C040
E1C0
7F80
3F00
ENDCHAR
STARTCHAR dotaccent
ENCODING -1
SWIDTH 222 0
DWIDTH 8 0
BBX 4 4 2 21
BITMAP
60
F0
F0
60
ENDCHAR
STARTCHAR ring
ENCODING -1
SWIDTH 222 0
DWIDTH 8 0
BBX 8 8 0 20
BITMAP
18
7E
66
C3
C3
66
7E
18
ENDCHAR
STARTCHAR hungarumlaut
ENCODING -1
SWIDTH 222 0
DWIDTH 8 0
BBX 13 8 -2 19
BITMAP
0E38
1E38
3C78
38F0
71E0
E1C0
E380
C300
ENDCHAR
STARTCHAR ogonek
ENCODING -1
SWIDTH 222 0
DWIDTH 8 0
BBX 9 8 -1 -7
BITMAP
0180
1C00
3000
6000
E000
E180
FF00
7C00
ENDCHAR
STARTCHAR caron
ENCODING -1
SWIDTH 222 0
DWIDTH 8 0
BBX 10 5 -1 21
BITMAP
E1C0
F3C0
7380
3F00
1E00
ENDCHAR
STARTCHAR emdash
ENCODING -1
SWIDTH 1000 0
DWIDTH 36 0
BBX 36 2 0 8
BITMAP
FFFFFFFFF0
FFFFFFFFF0
ENDCHAR
STARTCHAR Lslash
ENCODING -1
SWIDTH 444 0
DWIDTH 16 0
BBX 17 25 -1 0
BITMAP
0E0000
0E0000
0E0000
0E0000
0E0000
0E0000
0E0000
0E0000
0E0000
0EF000
0FF000
1FC000
7E0000
FE0000
4E0000
0E0000
0E0000
0E0000
0E0000
0E0000
0E0000
0E0000
0FFF80
0FFF80
0FFF80
ENDCHAR
STARTCHAR OE
ENCODING -1
SWIDTH 1000 0
DWIDTH 36 0
BBX 34 25 1 0
BITMAP
00FC1FFF80
03FF1FFFC0
0FFFDFFF80
1F03FC0000
1E01FC0000
3C00FC0000
78007C0000
78007FFF80
70003FFFC0
F0003FFF80
F0003C0000
F0001C0000
F0001C0000
F0001C0000
F0001C0000
F0003C0000
F0003C0000
78003C0000
78007C0000
3C00FC0000
3E01FC0000
1F03FC0000
0FFFDFFF80
07FF9FFFC0
01FE1FFFC0
ENDCHAR
STARTCHAR dotlessi
ENCODING -1
SWIDTH 222 0
DWIDTH 8 0
BBX 4 18 2 0
BITMAP
60
F0
F0
F0
F0
F0
F0
F0
F0
F0
F0
F0
F0
F0
F0
F0
F0
60
ENDCHAR
STARTCHAR lslash
ENCODING -1
SWIDTH 222 0
DWIDTH 8 0
BBX 10 25 -1 0
BITMAP
0C00
1E00
1E00
1E00
1E00
1E00
1E00
1E00
1FC0
1FC0
3F00
FE00
FE00
1E00
1E00
1E00
1E00
1E00
1E00
1E00
1E00
1E00
1E00
1E00
0C00
ENDCHAR
STARTCHAR oe
ENCODING -1
SWIDTH 944 0
DWIDTH 34 0
BBX 32 18 1 0
BITMAP
03F00FC0
0FFC3FF0
1FFE7FF8
3C0FF03C
3807E01E
7007C00E
7003C00E
F003FFFE
F003FFFE
E003C000
F003C000
7003C000
7003C000
7807E000
3C0FF000
1FFE7FFE
0FFC3FFF
03F00FFE
ENDCHAR
STARTCHAR trademark
ENCODING -1
SWIDTH 990 0
DWIDTH 36 0
BBX 32 15 2 10
BITMAP
FFF1E01F
FFF1F01F
0701F03F
0701F83F
0701F837
0701D877
0701DC77
0701DC67
0701CEE7
0701CEC7
0701C7C7
0701C7C7
0701C787
0701C387
0701C387
ENDCHAR
STARTCHAR minus
ENCODING -1
SWIDTH 600 0
DWIDTH 22 0
BBX 18 3 2 8
BITMAP
FFFFC0
FFFFC0
FFFFC0
ENDCHAR
STARTCHAR Scaron
ENCODING -1
SWIDTH 611 0
DWIDTH 22 0
BBX 20 31 1 0
BITMAP
070E00
039C00
01F800
00F800
00F000
000000
1FFF00
3FFF80
7FFF00
F00000
F00000
F00000
7C0000
7FF000
3FFF00
0FFF80
001FC0
0003E0
0001E0
0000F0
0000F0
0000F0
0000F0
0000F0
0000E0
0001E0
0003C0
0007C0
7FFF80
FFFF00
7FF800
ENDCHAR
STARTCHAR Ydieresis
ENCODING -1
SWIDTH 556 0
DWIDTH 20 0
BBX 18 30 1 0
BITMAP
0E0E00
0E1E00
0E1E00
0E0E00
000000
E001C0
E001C0
F003C0
F003C0
700380
780780
380700
3C0F00
1E1E00
0F3C00
0FFC00
07F800
01E000
01E000
01E000
01E000
01E000
01E000
01E000
01E000
01E000
01E000
01E000
01E000
00C000
ENDCHAR
STARTCHAR Zcaron
ENCODING -1
SWIDTH 500 0
DWIDTH 18 0
BBX 16 31 1 0
BITMAP
1C3C
0E38
0770
03E0
01C0
0000
7FFE
7FFE
7FFE
000E
000E
000E
001E
003C
003C
0078
00F0
01F0
03E0
07C0
0F80
1F00
3E00
3C00
7800
7000
F000
E000
FFFE
FFFF
7FFF
ENDCHAR
STARTCHAR scaron
ENCODING -1
SWIDTH 500 0
DWIDTH 18 0
BBX 16 25 1 0
BITMAP
1C38
0E70
07E0
03E0
03C0
0000
0000
1FFC
7FFC
7FFC
7000
F000
7E00
7FF0
1FFC
00FE
000F
0007
0007
0007
000F
001E
FFFE
FFFC
FFF0
ENDCHAR
STARTCHAR zcaron
ENCODING -1
SWIDTH 444 0
DWIDTH 16 0
BBX 14 25 1 0
BITMAP
3870
1CF0
0EE0
07C0
0380
0000
0000
7FF8
7FFC
7FFC
001C
0038
0078
01F0
03E0
07C0
0F00
1E00
3C00
7800
F000
E000
FFFC
FFFC
FFFC
ENDCHAR
STARTCHAR Delta
ENCODING -1
SWIDTH 707 0
DWIDTH 25 0
BBX 23 25 1 0
BITMAP
003C00
007C00
007E00
006E00
00EE00
00E700
01C700
01C380
038380
0383C0
0301C0
0701C0
0700E0
0E00E0
0E00F0
1C0070
1C0078
180038
380038
38001C
70001C
70001E
E0000E
FFFFFE
FFFFFE
ENDCHAR
STARTCHAR Omega
ENCODING -1
SWIDTH 795 0
DWIDTH 29 0
BBX 25 25 2 0
BITMAP
007F0000
03FFC000
07E3F000
0F007800
1E003C00
3C001C00
38000E00
70000E00
70000F00
70000700
F0000700
E0000700
E0000700
70000700
70000700
70000700
70000E00
30000E00
38000C00
1C001C00
0C003800
06007000
0300E000
FFC1FF80
FFC1FF80
ENDCHAR
STARTCHAR pi
ENCODING -1
SWIDTH 621 0
DWIDTH 22 0
BBX 22 18 0 0
BITMAP
7FFFFC
FFFFF8
7701C0
0701C0
0701C0
0701C0
0701C0
0701C0
0601C0
0E01C0
0E01C0
0E01C0
0E01C0
0E01C0
1C01C0
1C01C0
1C01C0
3800E0
ENDCHAR
STARTCHAR Euro
ENCODING -1
SWIDTH 611 0
DWIDTH 22 0
BBX 20 25 2 0
BITMAP
00FFE0
03FFF0
07FFE0
0FC000
0F0000
1E0000
1C0000
FFFE00
FFFE00
7FFC00
1C0000
1C0000
FFFE00
FFFE00
7FFC00
0E0000
0E0000
0F0000
078000
03C000
01F000
00FE00
007FF0
003FF0
0007F0
ENDCHAR
STARTCHAR estimated
ENCODING -1
SWIDTH 844 0
DWIDTH 30 0
BBX 28 25 1 0
BITMAP
003FC000
01C03800
03000E00
0E000300
1C000180
180001C0
380001C0
780001E0
780001E0
780001F0
F80001F0
F80001F0
FFFFFFF0
F8000000
F8000000
78000000
78000000
78000000
38000000
18000000
1C000180
0E000300
03000E00
01C03800
003FC000
ENDCHAR
STARTCHAR partialdiff
ENCODING -1
SWIDTH 592 0
DWIDTH 21 0
BBX 17 27 2 0
BITMAP
1FE000
7FF800
707C00
001E00
000E00
000700
000700
000380
000380
000380
07C380
1FF380
3E7B80
780F80
700780
E00380
E00380
E00380
C00380
E00700
E00700
E00E00
F00E00
701C00
3E7800
1FF000
0FC000
ENDCHAR
STARTCHAR product
ENCODING -1
SWIDTH 758 0
DWIDTH 27 0
BBX 25 28 1 -4
BITMAP
FFFFFF80
FFFFFF80
FFFFFF80
0E003800
0E003800
0E003800
0E003800
0E003800
0E003800
0E003800
0E003800
0E003800
0E003800
0E003800
0E003800
0E003800
0E003800
0E003800
0E003800
0E003800
0E003800
0E003800
0E003800
0E003800
0E003800
0E003800
0E003800
0E003800
ENDCHAR
STARTCHAR summation
ENCODING -1
SWIDTH 601 0
DWIDTH 22 0
BBX 20 28 1 -4
BITMAP
FFFFE0
FFFFE0
780000
3C0000
1C0000
0E0000
0F0000
078000
03C000
01E000
00E000
00F000
007800
003800
003800
007000
00E000
01C000
038000
070000
0F0000
0E0000
1C0000
380000
700000
FFFFF0
FFFFF0
FFFFF0
ENDCHAR
STARTCHAR uni2219
ENCODING -1
SWIDTH 305 0
DWIDTH 11 0
BBX 3 4 4 7
BITMAP
E0
E0
E0
E0
ENDCHAR
STARTCHAR radical
ENCODING -1
SWIDTH 612 0
DWIDTH 22 0
BBX 21 34 1 -5
BITMAP
000018
000018
000038
000030
000030
000030
000070
000060
000060
000060
0000E0
0000C0
0000C0
0000C0
0001C0
040180
3C0180
FC0180
4E0300
0E0300
060300
070300
070600
038600
038600
018600
01CC00
01CC00
00EC00
00EC00
007800
007800
007800
003800
ENDCHAR
STARTCHAR infinity
ENCODING -1
SWIDTH 810 0
DWIDTH 29 0
BBX 25 12 2 4
BITMAP
06001800
3F80FE00
70E1C700
E0730180
C03E0180
C01C0180
C01C0180
C03E0180
E0730180
70E1C700
3F80FE00
0E003800
ENDCHAR
STARTCHAR integral
ENCODING -1
SWIDTH 373 0
DWIDTH 13 0
BBX 12 36 1 -6
BITMAP
00F0
03F0
0780
0700
0600
0E00
0E00
0E00
0E00
0E00
0E00
0E00
0E00
0E00
0E00
0E00
0E00
0E00
0E00
0600
0600
0600
0600
0600
0600
0600
0600
0600
0600
0600
0E00
0E00
0C00
1C00
F800
F000
ENDCHAR
STARTCHAR approxequal
ENCODING -1
SWIDTH 605 0
DWIDTH 22 0
BBX 18 12 2 4
BITMAP
1E0000
3F80C0
61E180
C07F00
801E00
000000
000000
1E0080
7F80C0
E1E180
C07F00
001E00
ENDCHAR
STARTCHAR notequal
ENCODING -1
SWIDTH 605 0
DWIDTH 22 0
BBX 18 18 2 1
BITMAP
000800
001800
001800
003000
FFFFC0
FFFFC0
006000
00C000
00C000
008000
018000
018000
FFFFC0
FFFFC0
060000
060000
0C0000
0C0000
ENDCHAR
STARTCHAR lessequal
ENCODING -1
SWIDTH 605 0
DWIDTH 22 0
BBX 18 22 2 0
BITMAP
000040
0001C0
000780
001E00
007800
03E000
0F8000
3C0000
F00000
C00000
F00000
3E0000
078000
01E000
007800
001E00
0007C0
0001C0
000040
000000
FFFFC0
FFFFC0
ENDCHAR
STARTCHAR greaterequal
ENCODING -1
SWIDTH 605 0
DWIDTH 22 0
BBX 18 22 2 0
BITMAP
800000
E00000
780000
1E0000
078000
01E000
007C00
001F00
0003C0
0000C0
0007C0
001E00
007800
01E000
078000
1E0000
F80000
E00000
800000
000000
FFFFC0
FFFFC0
ENDCHAR
STARTCHAR lozenge
ENCODING -1
SWIDTH 613 0
DWIDTH 22 0
BBX 18 28 2 -2
BITMAP
00C000
01E000
03F000
037000
073800
061800
0E1C00
0C0C00
1C0E00
180600
380700
700380
600380
E001C0
E001C0
700180
700380
380700
180600
1C0E00
0C0C00
0E1C00
061800
073800
033000
03F000
01E000
00C000
ENDCHAR
STARTCHAR uni02C9
ENCODING -1
SWIDTH 222 0
DWIDTH 8 0
BBX 10 3 -1 22
BITMAP
7F80
FFC0
FFC0
ENDCHAR
STARTCHAR uni03A9
ENCODING -1
SWIDTH 795 0
DWIDTH 29 0
BBX 25 25 2 0
BITMAP
007F0000
03FFC000
07E3F000
0F007800
1E003C00
3C001C00
38000E00
70000E00
70000F00
70000700
F0000700
E0000700
E0000700
70000700
70000700
70000700
70000E00
30000E00
38000C00
1C001C00
0C003800
06007000
0300E000
FFC1FF80
FFC1FF80
ENDCHAR
STARTCHAR afii61289
ENCODING -1
SWIDTH 528 0
DWIDTH 19 0
BBX 17 27 1 0
BITMAP
01E000
07F800
071800
0E0C00
0C0C00
1C0C00
1C0C00
1C0C00
1C1C00
1C1800
1C3800
1C3000
1C7000
1CE000
1DC000
1F8000
1F0000
1E0000
1C0000
7C0000
FC0000
5C0100
0E0180
0E0300
0F9E00
07FC00
01F800
ENDCHAR
STARTCHAR uni03BC
ENCODING -1
SWIDTH 556 0
DWIDTH 20 0
BBX 16 25 2 -7
BITMAP
6006
F00F
F00F
F00F
F00F
F00F
F00F
F00F
F00F
F00F
F00F
F00F
F00F
F01F
F83F
FFF7
FFF7
FFC6
F000
F000
F000
F000
F000
F000
6000
ENDCHAR
STARTCHAR uni2215
ENCODING -1
SWIDTH 167 0
DWIDTH 6 0
BBX 18 25 -6 0
BITMAP
0000C0
0001C0
000380
000380
000700
000E00
000E00
001C00
003800
003800
007000
00E000
00C000
01C000
038000
070000
070000
0E0000
1C0000
1C0000
380000
700000
700000
E00000
C00000
ENDCHAR
ENDFONT
